<svg width="20" height="22" viewBox="0 0 20 22" fill="none" xmlns="http://www.w3.org/2000/svg">
<path d="M8.125 11.5102H6.875C5.8375 11.5102 5 10.8005 5 9.92129C5 9.0421 5.8375 8.3324 6.875 8.3324H8.125V7.27315C8.125 6.39396 8.9625 5.68426 10 5.68426C11.0375 5.68426 11.875 6.39396 11.875 7.27315V8.3324H13.125C14.1625 8.3324 15 9.0421 15 9.92129C15 10.8005 14.1625 11.5102 13.125 11.5102H11.875V12.5694C11.875 13.4486 11.0375 14.1583 10 14.1583C8.9625 14.1583 8.125 13.4486 8.125 12.5694V11.5102ZM9.125 0.133759L1.625 2.51709C0.65 2.83486 0 3.61871 0 4.50849V9.48699C0 14.8362 4.2625 19.8253 10 21.0435C15.7375 19.8253 20 14.8362 20 9.48699V4.50849C19.9991 4.07743 19.8431 3.65687 19.5527 3.30293C19.2624 2.949 18.8515 2.67855 18.375 2.52768L10.875 0.144352C10.3125 -0.0463141 9.6875 -0.0463141 9.125 0.133759Z" fill="#25B076"/>
</svg>
