<svg width="22" height="21" viewBox="0 0 22 21" fill="none" xmlns="http://www.w3.org/2000/svg">
<path d="M5.56888 11.4466L9.45628 15.3362L7.90198 16.8916L9.45848 18.4481L7.90308 20.0035L5.18058 17.281L2.06868 20.3929L0.513275 18.8375L3.62518 15.7245L0.902675 13.0031L2.45808 11.4477L4.01348 13.002L5.56778 11.4466H5.56888ZM1.11388 0L5.01448 0.00330002L18.0132 13.0031L19.5697 11.4477L21.1251 13.0031L18.4037 15.7256L21.5145 18.8375L19.9591 20.3929L16.8472 17.281L14.1247 20.0035L12.5693 18.4481L14.1247 16.8916L1.11718 3.8841L1.11388 0ZM17.0166 0L20.9139 0.00330002L20.9161 3.8786L16.4578 8.3358L12.5682 4.4473L17.0166 0Z" fill="#B32121"/>
</svg>
