<svg width="21" height="22" viewBox="0 0 21 22" fill="none" xmlns="http://www.w3.org/2000/svg">
<path d="M9.125 12.4667H7.875C6.8375 12.4667 6 11.757 6 10.8778C6 9.99862 6.8375 9.28892 7.875 9.28892H9.125V8.22967C9.125 7.35048 9.9625 6.64078 11 6.64078C12.0375 6.64078 12.875 7.35048 12.875 8.22967V9.28892H14.125C15.1625 9.28892 16 9.99862 16 10.8778C16 11.757 15.1625 12.4667 14.125 12.4667H12.875V13.5259C12.875 14.4051 12.0375 15.1148 11 15.1148C9.9625 15.1148 9.125 14.4051 9.125 13.5259V12.4667ZM10.125 1.09028L2.625 3.47361C1.65 3.79138 1 4.57523 1 5.46501V10.4435C1 15.7928 5.2625 20.7819 11 22C16.7375 20.7819 21 15.7928 21 10.4435V5.46501C20.9991 5.03395 20.8431 4.61339 20.5527 4.25945C20.2624 3.90552 19.8515 3.63507 19.375 3.4842L11.875 1.10087C11.3125 0.910206 10.6875 0.910206 10.125 1.09028Z" fill="black"/>
<path d="M8.125 11.5102H6.875C5.8375 11.5102 5 10.8005 5 9.92129C5 9.0421 5.8375 8.3324 6.875 8.3324H8.125V7.27315C8.125 6.39396 8.9625 5.68426 10 5.68426C11.0375 5.68426 11.875 6.39396 11.875 7.27315V8.3324H13.125C14.1625 8.3324 15 9.0421 15 9.92129C15 10.8005 14.1625 11.5102 13.125 11.5102H11.875V12.5694C11.875 13.4486 11.0375 14.1583 10 14.1583C8.9625 14.1583 8.125 13.4486 8.125 12.5694V11.5102ZM9.125 0.133759L1.625 2.51709C0.65 2.83486 0 3.61871 0 4.50849V9.48699C0 14.8362 4.2625 19.8253 10 21.0435C15.7375 19.8253 20 14.8362 20 9.48699V4.50849C19.9991 4.07743 19.8431 3.65687 19.5527 3.30293C19.2624 2.949 18.8515 2.67855 18.375 2.52768L10.875 0.144352C10.3125 -0.0463141 9.6875 -0.0463141 9.125 0.133759Z" fill="#25B076"/>
</svg>
