<svg width="23" height="22" viewBox="0 0 23 22" fill="none" xmlns="http://www.w3.org/2000/svg">
<path d="M5.80932 12.3487L9.8816 16.5448L8.25338 18.2228L9.8839 19.9019L8.25453 21.5799L5.40255 18.6429L2.14265 22L0.513275 20.322L3.77317 16.9637L0.921195 14.0278L2.55057 12.3499L4.17994 14.0266L5.80816 12.3487H5.80932ZM1.14244 0L5.22855 0.00356009L18.8455 14.0278L20.476 12.3499L22.1054 14.0278L19.2545 16.9649L22.5133 20.322L20.8839 22L17.624 18.6429L14.772 21.5799L13.1426 19.9019L14.772 18.2228L1.1459 4.19019L1.14244 0ZM17.8015 0L21.8841 0.00356009L21.8864 4.18426L17.2161 8.99272L13.1415 4.79778L17.8015 0Z" fill="black"/>
<path d="M5.56888 11.4466L9.45628 15.3362L7.90198 16.8916L9.45848 18.4481L7.90308 20.0035L5.18058 17.281L2.06868 20.3929L0.513275 18.8375L3.62518 15.7245L0.902675 13.0031L2.45808 11.4477L4.01348 13.002L5.56778 11.4466H5.56888ZM1.11388 0L5.01448 0.00330002L18.0132 13.0031L19.5697 11.4477L21.1251 13.0031L18.4037 15.7256L21.5145 18.8375L19.9591 20.3929L16.8472 17.281L14.1247 20.0035L12.5693 18.4481L14.1247 16.8916L1.11718 3.8841L1.11388 0ZM17.0166 0L20.9139 0.00330002L20.9161 3.8786L16.4578 8.3358L12.5682 4.4473L17.0166 0Z" fill="#B32121"/>
</svg>
